{
	"asset":{
		"generator":"Khronos glTF Blender I/O v5.0.21",
		"version":"2.0"
	},
	"extensionsUsed":[
		"KHR_materials_specular",
		"KHR_materials_ior"
	],
	"scene":0,
	"scenes":[
		{
			"name":"Scene",
			"nodes":[
				0,
				1,
				2,
				3,
				4,
				5,
				6,
				7
			]
		}
	],
	"nodes":[
		{
			"mesh":0,
			"name":"nfsu2",
			"rotation":[
				0.70710688829422,
				0,
				0,
				0.7071066498756409
			]
		},
		{
			"mesh":1,
			"name":"nfsu2.001",
			"rotation":[
				0.70710688829422,
				0,
				0,
				0.7071066498756409
			]
		},
		{
			"mesh":2,
			"name":"nfsu2.002",
			"rotation":[
				0.70710688829422,
				0,
				0,
				0.7071066498756409
			]
		},
		{
			"mesh":3,
			"name":"nfsu2.003",
			"rotation":[
				0.70710688829422,
				0,
				0,
				0.7071066498756409
			]
		},
		{
			"mesh":4,
			"name":"nfsu2.004",
			"rotation":[
				0.70710688829422,
				0,
				0,
				0.7071066498756409
			]
		},
		{
			"mesh":5,
			"name":"nfsu2.005",
			"rotation":[
				0.70710688829422,
				0,
				0,
				0.7071066498756409
			]
		},
		{
			"mesh":6,
			"name":"nfsu2.006",
			"rotation":[
				0.70710688829422,
				0,
				0,
				0.7071066498756409
			]
		},
		{
			"mesh":7,
			"name":"nfsu2.007",
			"rotation":[
				0.70710688829422,
				0,
				0,
				0.7071066498756409
			]
		}
	],
	"materials":[
		{
			"doubleSided":true,
			"extensions":{
				"KHR_materials_specular":{
					"specularColorFactor":[
						0.0,
						0.0,
						0.0
					]
				},
				"KHR_materials_ior":{
					"ior":1.4499999284744263
				}
			},
			"name":"TRN_HILLSA_DM",
			"pbrMetallicRoughness":{
				"baseColorTexture":{
					"index":0
				},
				"metallicFactor":0,
				"roughnessFactor":0.5
			}
		},
		{
			"doubleSided":true,
			"extensions":{
				"KHR_materials_specular":{
					"specularColorFactor":[
						0.0,
						0.0,
						0.0
					]
				},
				"KHR_materials_ior":{
					"ior":1.4499999284744263
				}
			},
			"name":"SFX_LIGHTSBLINKINGA_DM.001",
			"pbrMetallicRoughness":{
				"baseColorTexture":{
					"index":1
				},
				"metallicFactor":0,
				"roughnessFactor":0.5
			}
		},
		{
			"doubleSided":true,
			"extensions":{
				"KHR_materials_specular":{
					"specularColorFactor":[
						0.0,
						0.0,
						0.0
					]
				},
				"KHR_materials_ior":{
					"ior":1.4499999284744263
				}
			},
			"name":"TRN_GRASS_A.003",
			"pbrMetallicRoughness":{
				"baseColorTexture":{
					"index":2
				},
				"metallicFactor":0,
				"roughnessFactor":0.5
			}
		},
		{
			"doubleSided":true,
			"extensions":{
				"KHR_materials_specular":{
					"specularColorFactor":[
						0.0,
						0.0,
						0.0
					]
				},
				"KHR_materials_ior":{
					"ior":1.4499999284744263
				}
			},
			"name":"SFX_FLAREMISTA_DM",
			"pbrMetallicRoughness":{
				"baseColorTexture":{
					"index":3
				},
				"metallicFactor":0,
				"roughnessFactor":0.5
			}
		},
		{
			"doubleSided":true,
			"extensions":{
				"KHR_materials_specular":{
					"specularColorFactor":[
						0.0,
						0.0,
						0.0
					]
				},
				"KHR_materials_ior":{
					"ior":1.4499999284744263
				}
			},
			"name":"TRN_CITYGRIDC",
			"pbrMetallicRoughness":{
				"baseColorTexture":{
					"index":4
				},
				"metallicFactor":0,
				"roughnessFactor":0.5
			}
		},
		{
			"doubleSided":true,
			"extensions":{
				"KHR_materials_specular":{
					"specularColorFactor":[
						0.0,
						0.0,
						0.0
					]
				},
				"KHR_materials_ior":{
					"ior":1.4499999284744263
				}
			},
			"name":"ARC_STREETLIGHTS_A_DM",
			"pbrMetallicRoughness":{
				"baseColorTexture":{
					"index":5
				},
				"metallicFactor":0,
				"roughnessFactor":0.5
			}
		},
		{
			"doubleSided":true,
			"extensions":{
				"KHR_materials_specular":{
					"specularColorFactor":[
						0.0,
						0.0,
						0.0
					]
				},
				"KHR_materials_ior":{
					"ior":1.4499999284744263
				}
			},
			"name":"ANM_WATERA_.001",
			"pbrMetallicRoughness":{
				"baseColorTexture":{
					"index":6
				},
				"metallicFactor":0,
				"roughnessFactor":0.5
			}
		},
		{
			"doubleSided":true,
			"extensions":{
				"KHR_materials_specular":{
					"specularColorFactor":[
						0.0,
						0.0,
						0.0
					]
				},
				"KHR_materials_ior":{
					"ior":1.4499999284744263
				}
			},
			"name":"TRN_HILLSB_DM",
			"pbrMetallicRoughness":{
				"baseColorTexture":{
					"index":7
				},
				"metallicFactor":0,
				"roughnessFactor":0.5
			}
		}
	],
	"meshes":[
		{
			"name":"nfsu2",
			"primitives":[
				{
					"attributes":{
						"POSITION":0,
						"NORMAL":1,
						"TEXCOORD_0":2
					},
					"indices":3,
					"material":0
				}
			]
		},
		{
			"name":"nfsu2.001",
			"primitives":[
				{
					"attributes":{
						"POSITION":4,
						"NORMAL":5,
						"TEXCOORD_0":6
					},
					"indices":7,
					"material":1
				}
			]
		},
		{
			"name":"nfsu2.002",
			"primitives":[
				{
					"attributes":{
						"POSITION":8,
						"NORMAL":9,
						"TEXCOORD_0":10
					},
					"indices":11,
					"material":2
				}
			]
		},
		{
			"name":"nfsu2.003",
			"primitives":[
				{
					"attributes":{
						"POSITION":12,
						"NORMAL":13,
						"TEXCOORD_0":14
					},
					"indices":7,
					"material":3
				}
			]
		},
		{
			"name":"nfsu2.004",
			"primitives":[
				{
					"attributes":{
						"POSITION":15,
						"NORMAL":16,
						"TEXCOORD_0":17
					},
					"indices":18,
					"material":4
				}
			]
		},
		{
			"name":"nfsu2.005",
			"primitives":[
				{
					"attributes":{
						"POSITION":19,
						"NORMAL":20,
						"TEXCOORD_0":21
					},
					"indices":22,
					"material":5
				}
			]
		},
		{
			"name":"nfsu2.006",
			"primitives":[
				{
					"attributes":{
						"POSITION":23,
						"NORMAL":24,
						"TEXCOORD_0":25
					},
					"indices":26,
					"material":6
				}
			]
		},
		{
			"name":"nfsu2.007",
			"primitives":[
				{
					"attributes":{
						"POSITION":27,
						"NORMAL":28,
						"TEXCOORD_0":29
					},
					"indices":30,
					"material":7
				}
			]
		}
	],
	"textures":[
		{
			"sampler":0,
			"source":0
		},
		{
			"sampler":0,
			"source":1
		},
		{
			"sampler":0,
			"source":2
		},
		{
			"sampler":0,
			"source":3
		},
		{
			"sampler":0,
			"source":4
		},
		{
			"sampler":0,
			"source":5
		},
		{
			"sampler":0,
			"source":6
		},
		{
			"sampler":0,
			"source":7
		}
	],
	"images":[
		{
			"mimeType":"image/png",
			"name":"SPEED2",
			"uri":"textures/SPEED2.png"
		},
		{
			"mimeType":"image/png",
			"name":"SFX_LIGHTSBLINKINGA_DM",
			"uri":"textures/SFX_LIGHTSBLINKINGA_DM.png"
		},
		{
			"mimeType":"image/png",
			"name":"TRN_GRASS_A.dds",
			"uri":"textures/TRN_GRASS_A.dds.png"
		},
		{
			"mimeType":"image/png",
			"name":"SFX_FLAREMISTA_DM",
			"uri":"textures/SFX_FLAREMISTA_DM.png"
		},
		{
			"mimeType":"image/png",
			"name":"SPEED2",
			"uri":"textures/SPEED2-1.png"
		},
		{
			"mimeType":"image/png",
			"name":"ARC_STREETLIGHTS_A_DM",
			"uri":"textures/ARC_STREETLIGHTS_A_DM.png"
		},
		{
			"mimeType":"image/png",
			"name":"ANM_WATERA_.dds",
			"uri":"textures/ANM_WATERA_.dds.png"
		},
		{
			"mimeType":"image/png",
			"name":"SPEED2",
			"uri":"textures/SPEED2-2.png"
		}
	],
	"accessors":[
		{
			"bufferView":0,
			"componentType":5126,
			"count":309,
			"max":[
				5610.42919921875,
				5516.80126953125,
				-198.02288818359375
			],
			"min":[
				-5878.50244140625,
				-5681.72119140625,
				-878.568359375
			],
			"type":"VEC3"
		},
		{
			"bufferView":1,
			"componentType":5126,
			"count":309,
			"type":"VEC3"
		},
		{
			"bufferView":2,
			"componentType":5126,
			"count":309,
			"type":"VEC2"
		},
		{
			"bufferView":3,
			"componentType":5123,
			"count":399,
			"type":"SCALAR"
		},
		{
			"bufferView":4,
			"componentType":5126,
			"count":6,
			"max":[
				-4469.4150390625,
				2398.85302734375,
				-343.95867919921875
			],
			"min":[
				-4500.18408203125,
				2376.572998046875,
				-665.2511596679688
			],
			"type":"VEC3"
		},
		{
			"bufferView":5,
			"componentType":5126,
			"count":6,
			"type":"VEC3"
		},
		{
			"bufferView":6,
			"componentType":5126,
			"count":6,
			"type":"VEC2"
		},
		{
			"bufferView":7,
			"componentType":5123,
			"count":6,
			"type":"SCALAR"
		},
		{
			"bufferView":8,
			"componentType":5126,
			"count":4,
			"max":[
				3393.945068359375,
				3634.81982421875,
				-195.2415008544922
			],
			"min":[
				-5184.404296875,
				-4667.80712890625,
				-195.2427978515625
			],
			"type":"VEC3"
		},
		{
			"bufferView":9,
			"componentType":5126,
			"count":4,
			"type":"VEC3"
		},
		{
			"bufferView":10,
			"componentType":5126,
			"count":4,
			"type":"VEC2"
		},
		{
			"bufferView":11,
			"componentType":5123,
			"count":6,
			"type":"SCALAR"
		},
		{
			"bufferView":12,
			"componentType":5126,
			"count":6,
			"max":[
				-4252.5810546875,
				2275.235107421875,
				123.16459655761719
			],
			"min":[
				-4294.39404296875,
				2227.5390625,
				-169.5887908935547
			],
			"type":"VEC3"
		},
		{
			"bufferView":13,
			"componentType":5126,
			"count":6,
			"type":"VEC3"
		},
		{
			"bufferView":14,
			"componentType":5126,
			"count":6,
			"type":"VEC2"
		},
		{
			"bufferView":15,
			"componentType":5126,
			"count":101,
			"max":[
				4948.50439453125,
				4847.91845703125,
				-155.72569274902344
			],
			"min":[
				345.2864990234375,
				-5050.27978515625,
				-437.1142883300781
			],
			"type":"VEC3"
		},
		{
			"bufferView":16,
			"componentType":5126,
			"count":101,
			"type":"VEC3"
		},
		{
			"bufferView":17,
			"componentType":5126,
			"count":101,
			"type":"VEC2"
		},
		{
			"bufferView":18,
			"componentType":5123,
			"count":120,
			"type":"SCALAR"
		},
		{
			"bufferView":19,
			"componentType":5126,
			"count":34,
			"max":[
				4859.12646484375,
				4044.381103515625,
				-277.41790771484375
			],
			"min":[
				2520.271240234375,
				24.095338821411133,
				-416.44110107421875
			],
			"type":"VEC3"
		},
		{
			"bufferView":20,
			"componentType":5126,
			"count":34,
			"type":"VEC3"
		},
		{
			"bufferView":21,
			"componentType":5126,
			"count":34,
			"type":"VEC2"
		},
		{
			"bufferView":22,
			"componentType":5123,
			"count":36,
			"type":"SCALAR"
		},
		{
			"bufferView":23,
			"componentType":5126,
			"count":1150,
			"max":[
				1007.9480590820312,
				4713.2431640625,
				-237.43069458007812
			],
			"min":[
				-5614.35009765625,
				-5307.615234375,
				-250.2347869873047
			],
			"type":"VEC3"
		},
		{
			"bufferView":24,
			"componentType":5126,
			"count":1150,
			"type":"VEC3"
		},
		{
			"bufferView":25,
			"componentType":5126,
			"count":1150,
			"type":"VEC2"
		},
		{
			"bufferView":26,
			"componentType":5123,
			"count":1563,
			"type":"SCALAR"
		},
		{
			"bufferView":27,
			"componentType":5126,
			"count":396,
			"max":[
				4092.254150390625,
				2957.93603515625,
				40.71426010131836
			],
			"min":[
				-5308.0654296875,
				-4579.63916015625,
				-728.9076538085938
			],
			"type":"VEC3"
		},
		{
			"bufferView":28,
			"componentType":5126,
			"count":396,
			"type":"VEC3"
		},
		{
			"bufferView":29,
			"componentType":5126,
			"count":396,
			"type":"VEC2"
		},
		{
			"bufferView":30,
			"componentType":5123,
			"count":498,
			"type":"SCALAR"
		}
	],
	"bufferViews":[
		{
			"buffer":0,
			"byteLength":3708,
			"byteOffset":0,
			"target":34962
		},
		{
			"buffer":0,
			"byteLength":3708,
			"byteOffset":3708,
			"target":34962
		},
		{
			"buffer":0,
			"byteLength":2472,
			"byteOffset":7416,
			"target":34962
		},
		{
			"buffer":0,
			"byteLength":798,
			"byteOffset":9888,
			"target":34963
		},
		{
			"buffer":0,
			"byteLength":72,
			"byteOffset":10688,
			"target":34962
		},
		{
			"buffer":0,
			"byteLength":72,
			"byteOffset":10760,
			"target":34962
		},
		{
			"buffer":0,
			"byteLength":48,
			"byteOffset":10832,
			"target":34962
		},
		{
			"buffer":0,
			"byteLength":12,
			"byteOffset":10880,
			"target":34963
		},
		{
			"buffer":0,
			"byteLength":48,
			"byteOffset":10892,
			"target":34962
		},
		{
			"buffer":0,
			"byteLength":48,
			"byteOffset":10940,
			"target":34962
		},
		{
			"buffer":0,
			"byteLength":32,
			"byteOffset":10988,
			"target":34962
		},
		{
			"buffer":0,
			"byteLength":12,
			"byteOffset":11020,
			"target":34963
		},
		{
			"buffer":0,
			"byteLength":72,
			"byteOffset":11032,
			"target":34962
		},
		{
			"buffer":0,
			"byteLength":72,
			"byteOffset":11104,
			"target":34962
		},
		{
			"buffer":0,
			"byteLength":48,
			"byteOffset":11176,
			"target":34962
		},
		{
			"buffer":0,
			"byteLength":1212,
			"byteOffset":11224,
			"target":34962
		},
		{
			"buffer":0,
			"byteLength":1212,
			"byteOffset":12436,
			"target":34962
		},
		{
			"buffer":0,
			"byteLength":808,
			"byteOffset":13648,
			"target":34962
		},
		{
			"buffer":0,
			"byteLength":240,
			"byteOffset":14456,
			"target":34963
		},
		{
			"buffer":0,
			"byteLength":408,
			"byteOffset":14696,
			"target":34962
		},
		{
			"buffer":0,
			"byteLength":408,
			"byteOffset":15104,
			"target":34962
		},
		{
			"buffer":0,
			"byteLength":272,
			"byteOffset":15512,
			"target":34962
		},
		{
			"buffer":0,
			"byteLength":72,
			"byteOffset":15784,
			"target":34963
		},
		{
			"buffer":0,
			"byteLength":13800,
			"byteOffset":15856,
			"target":34962
		},
		{
			"buffer":0,
			"byteLength":13800,
			"byteOffset":29656,
			"target":34962
		},
		{
			"buffer":0,
			"byteLength":9200,
			"byteOffset":43456,
			"target":34962
		},
		{
			"buffer":0,
			"byteLength":3126,
			"byteOffset":52656,
			"target":34963
		},
		{
			"buffer":0,
			"byteLength":4752,
			"byteOffset":55784,
			"target":34962
		},
		{
			"buffer":0,
			"byteLength":4752,
			"byteOffset":60536,
			"target":34962
		},
		{
			"buffer":0,
			"byteLength":3168,
			"byteOffset":65288,
			"target":34962
		},
		{
			"buffer":0,
			"byteLength":996,
			"byteOffset":68456,
			"target":34963
		}
	],
	"samplers":[
		{
			"magFilter":9729,
			"minFilter":9987
		}
	],
	"buffers":[
		{
			"byteLength":69452,
			"uri":"landscape.bin"
		}
	]
}
